<svg xmlns="http://www.w3.org/2000/svg" width="487" height="628" viewBox="0 0 487 628">
<g>
<path d="M 339.71 582.25 C338.89,580.19 336.09,574.00 333.49,568.50 C330.89,563.00 327.67,556.03 326.34,553.00 C325.00,549.97 323.26,546.38 322.48,545.00 C319.57,539.93 315.00,529.77 315.00,528.37 C315.00,527.57 311.15,519.40 306.45,510.21 C297.41,492.56 295.64,489.30 287.25,474.93 C284.36,469.99 282.00,465.70 282.00,465.42 C282.00,465.13 279.08,460.23 275.50,454.54 C268.79,443.84 267.74,441.58 270.75,444.24 C271.71,445.09 279.26,450.27 287.53,455.75 C296.32,461.58 304.46,467.83 307.14,470.81 C314.00,478.44 317.55,488.14 321.07,508.89 C326.20,539.09 327.18,541.85 333.80,544.64 C343.22,548.62 342.27,546.13 342.43,567.25 C342.50,577.56 342.26,586.00 341.89,586.00 C341.52,586.00 340.54,584.31 339.71,582.25 ZM 394.39 519.15 C391.58,517.14 384.44,511.76 378.53,507.20 C366.40,497.83 348.45,485.11 346.07,484.20 C344.35,483.54 324.57,470.83 313.52,463.27 C309.68,460.65 303.38,456.68 299.52,454.46 C282.70,444.77 264.39,431.07 253.87,420.31 L 246.23 412.50 L 245.59 404.25 C245.21,399.31 245.33,396.00 245.89,396.00 C246.41,396.00 251.17,398.29 256.47,401.09 C265.26,405.73 269.00,406.63 269.00,404.13 C269.00,403.61 266.98,402.00 264.50,400.55 C259.44,397.59 259.20,397.03 261.92,394.58 C263.75,392.91 264.18,393.05 272.17,397.84 C281.15,403.23 289.03,406.52 301.25,409.97 C307.77,411.81 310.99,412.11 321.46,411.83 C328.94,411.63 334.36,411.05 335.03,410.37 C335.87,409.53 333.40,406.54 325.45,398.75 C319.23,392.66 314.94,387.68 315.20,386.88 C315.52,385.93 318.30,385.28 324.08,384.79 C343.09,383.18 361.89,379.08 366.55,375.53 C368.24,374.24 368.30,373.90 367.00,373.03 C366.17,372.48 363.25,372.02 360.50,372.01 C355.20,372.00 345.08,370.11 336.00,367.45 C328.45,365.23 315.58,358.28 306.27,351.39 C302.00,348.24 297.03,344.58 295.24,343.26 C291.18,340.30 277.34,333.41 271.71,331.57 C260.20,327.79 242.49,324.40 241.61,325.82 C240.68,327.33 242.80,328.42 253.50,331.94 C259.00,333.75 263.95,335.57 264.50,335.98 C265.05,336.40 268.20,338.22 271.50,340.03 C281.08,345.29 287.82,350.65 298.22,361.28 C308.23,371.52 310.24,374.60 307.86,376.11 C304.99,377.93 303.10,376.74 296.64,369.09 C280.87,350.40 265.58,339.80 243.50,332.24 C237.74,330.27 235.12,329.60 221.25,326.55 C211.83,324.48 211.95,327.59 221.50,332.65 C225.73,334.90 241.37,345.48 248.50,350.91 C251.80,353.43 260.35,361.12 267.50,368.00 C274.65,374.88 282.64,381.84 285.25,383.45 C289.94,386.36 291.57,389.91 288.95,391.53 C286.93,392.78 277.14,385.63 264.37,373.60 C244.67,355.03 211.94,328.00 209.16,328.00 C206.65,328.00 207.17,330.45 211.11,337.24 C219.16,351.11 233.40,368.42 244.75,378.15 C251.15,383.63 252.17,385.78 249.44,388.05 C248.11,389.15 246.81,388.27 240.35,381.92 C231.40,373.12 223.80,363.88 217.73,354.40 C213.18,347.30 208.00,336.72 208.00,334.51 C208.00,332.28 203.83,327.77 202.75,328.85 C200.68,330.92 206.79,349.06 212.59,358.05 C214.17,360.50 215.92,363.24 216.48,364.15 C220.10,369.99 225.62,377.36 230.24,382.51 C236.82,389.86 238.00,394.20 238.00,411.12 C238.00,424.84 235.78,436.30 233.22,435.80 C231.53,435.47 216.67,413.85 211.67,404.46 C204.94,391.82 200.86,380.59 198.97,369.50 C197.79,362.54 198.17,333.52 199.57,324.25 C200.32,319.27 197.60,313.24 190.36,303.83 C187.96,300.71 186.00,297.74 186.00,297.23 C186.00,296.16 189.85,292.48 190.34,293.09 C190.53,293.32 191.69,295.64 192.93,298.25 C196.80,306.43 210.29,315.98 222.00,318.82 C224.48,319.42 233.25,320.40 241.50,321.00 C258.48,322.23 265.86,323.41 274.50,326.28 C286.63,330.30 296.64,335.80 309.24,345.34 C327.15,358.91 338.26,363.76 358.00,366.62 C366.76,367.89 370.32,367.94 379.50,366.95 C385.55,366.30 393.18,365.16 396.46,364.42 C399.73,363.68 402.58,363.24 402.78,363.44 C404.02,364.69 386.84,374.15 373.54,379.55 C369.16,381.33 365.41,383.28 365.20,383.89 C363.67,388.49 391.98,387.91 412.83,382.90 C423.03,380.46 428.60,378.32 441.38,371.93 C446.81,369.22 451.51,367.00 451.82,367.00 C453.30,367.00 445.77,373.64 440.00,377.41 C418.37,391.56 393.77,396.51 365.00,392.50 C359.23,391.69 352.70,390.54 350.50,389.94 C348.30,389.34 345.83,388.78 345.00,388.69 C341.89,388.36 327.95,390.27 327.44,391.09 C326.49,392.64 335.12,400.92 342.64,405.68 C346.69,408.25 350.00,410.91 350.00,411.60 C350.00,412.76 347.37,413.72 335.00,417.07 C324.94,419.79 302.73,417.94 290.76,413.38 C283.80,410.73 282.92,412.15 286.42,420.40 C290.25,429.42 294.27,433.28 301.61,434.98 C309.41,436.78 320.20,441.51 327.00,446.10 C333.86,450.73 339.01,456.12 351.74,472.02 C357.25,478.90 363.81,486.41 366.31,488.71 L 370.84 492.90 L 377.81 492.31 C384.37,491.76 384.86,491.87 386.28,494.11 C387.11,495.43 388.38,498.30 389.10,500.50 C389.83,502.70 391.84,506.75 393.56,509.50 C403.18,524.85 403.23,525.46 394.39,519.15 ZM 233.02 418.37 C233.68,414.04 232.77,400.04 231.41,393.69 C231.09,392.15 227.93,387.65 224.40,383.69 C216.23,374.53 209.67,362.30 203.69,345.08 C203.04,343.19 201.87,341.44 201.09,341.19 C198.21,340.24 201.31,363.17 206.05,377.87 C208.79,386.36 211.00,391.09 219.36,406.32 C226.24,418.85 230.51,424.83 231.71,423.62 C232.04,423.29 232.63,420.93 233.02,418.37 ZM 233.36 450.49 C232.63,448.60 235.72,443.74 237.31,444.27 C237.97,444.48 239.18,445.87 240.00,447.36 C241.33,449.75 241.33,450.16 240.00,451.01 C237.71,452.47 234.01,452.18 233.36,450.49 ZM 358.42 413.64 C357.60,411.51 358.30,407.72 359.60,407.30 C360.20,407.10 361.78,407.82 363.10,408.90 C365.05,410.51 365.30,411.21 364.40,412.69 C362.99,415.01 359.17,415.62 358.42,413.64 ZM 305.25 398.30 C299.69,396.99 299.00,396.56 299.00,394.38 C299.00,390.51 301.47,390.53 308.48,394.45 C318.26,399.92 317.25,401.12 305.25,398.30 ZM 465.75 358.31 C463.87,357.82 462.39,353.79 463.46,352.06 C464.40,350.54 468.55,350.75 469.90,352.38 C470.70,353.34 470.75,354.54 470.05,356.38 C469.03,359.04 468.85,359.12 465.75,358.31 ZM 416.01 356.51 C415.30,355.66 415.05,353.95 415.41,352.51 C416.20,349.35 420.41,349.03 422.00,352.00 C424.25,356.21 419.03,360.15 416.01,356.51 ZM 316.50 326.54 C288.79,322.43 265.43,309.64 241.35,285.43 C228.98,273.00 227.64,269.88 238.62,279.09 C259.98,297.00 265.85,301.08 281.50,308.84 C291.27,313.68 300.13,316.73 310.80,318.91 C317.49,320.28 336.67,320.34 337.50,319.00 C338.45,317.46 333.31,308.75 327.82,302.59 C322.95,297.13 322.92,297.05 324.60,294.49 C325.53,293.07 326.97,292.04 327.81,292.20 C329.93,292.62 340.26,306.30 343.88,313.50 C348.83,323.35 349.22,324.81 347.14,325.92 C344.01,327.60 326.04,327.96 316.50,326.54 ZM 360.00 319.99 C359.30,318.31 358.90,316.80 359.12,316.62 C359.33,316.45 363.90,314.82 369.27,312.99 C374.64,311.16 379.53,309.06 380.14,308.34 C381.70,306.45 379.35,303.16 369.09,292.91 C348.15,271.99 320.41,259.56 286.76,256.01 C275.92,254.87 248.13,254.83 239.50,255.94 C236.20,256.37 233.31,256.56 233.08,256.36 C230.74,254.34 246.67,252.03 267.50,251.37 C293.40,250.54 315.11,253.18 329.50,258.89 C337.23,261.96 350.84,269.08 358.00,273.80 C367.35,279.97 380.95,293.01 388.23,302.79 C392.90,309.06 393.36,311.35 390.18,312.31 C389.26,312.59 384.00,314.85 378.50,317.32 C373.00,319.79 366.87,322.09 364.88,322.43 C361.55,322.99 361.16,322.80 360.00,319.99 ZM 109.05 310.76 C96.85,290.14 93.37,286.27 86.78,286.06 C84.95,286.00 82.00,281.26 82.00,278.38 C82.00,277.43 82.70,275.89 83.55,274.94 C84.96,273.38 84.83,272.72 82.01,267.52 C80.31,264.38 78.20,260.71 77.33,259.37 C76.45,258.03 75.99,256.68 76.30,256.37 C77.32,255.35 78.73,256.90 79.36,259.73 C80.09,263.01 89.41,274.90 91.82,275.62 C92.74,275.90 97.58,278.12 102.57,280.56 C107.56,283.00 112.26,285.00 113.01,285.00 C114.36,285.00 118.43,285.92 137.16,290.48 C142.47,291.77 149.00,293.85 151.66,295.10 C154.32,296.35 156.78,297.40 157.12,297.44 C158.53,297.58 171.97,279.33 171.98,277.27 C171.99,275.96 174.46,272.32 177.95,268.48 C186.26,259.30 189.36,252.66 188.82,245.19 C188.50,240.76 187.73,238.51 185.53,235.63 L 182.67 231.88 L 174.71 232.15 C167.44,232.39 166.60,232.22 164.89,230.11 C163.86,228.84 162.49,225.94 161.84,223.65 C161.19,221.37 159.79,218.79 158.72,217.91 C156.89,216.42 156.87,216.15 158.39,213.21 C159.38,211.29 160.00,207.62 160.00,203.61 C160.00,200.05 160.46,195.92 161.02,194.44 C161.96,191.97 161.64,191.35 157.17,187.07 C151.09,181.24 148.91,174.34 151.07,167.80 C152.32,164.01 157.31,159.00 159.84,159.00 C161.47,159.00 161.30,159.67 158.89,162.94 C157.73,164.51 156.55,167.84 156.26,170.35 C155.43,177.75 161.85,187.03 165.63,183.89 C167.45,182.39 167.36,180.06 165.42,177.91 C163.64,175.95 162.96,167.77 164.50,167.00 C165.05,166.73 166.32,168.19 167.33,170.25 C168.34,172.31 169.69,174.00 170.33,173.99 C170.97,173.98 173.49,172.40 175.92,170.47 C178.35,168.53 181.28,166.74 182.42,166.48 C191.34,164.48 194.02,164.05 197.75,164.02 C204.60,163.99 220.12,160.98 224.19,158.90 C226.26,157.85 229.56,155.37 231.54,153.39 C233.52,151.42 235.37,150.03 235.65,150.32 C235.93,150.60 235.29,152.81 234.23,155.22 C230.16,164.41 218.08,169.99 202.20,170.01 C193.19,170.01 185.00,171.73 180.84,174.49 C174.66,178.58 175.68,179.77 185.25,179.63 C191.79,179.53 194.74,180.00 199.50,181.89 C203.31,183.40 207.76,184.31 211.68,184.38 C217.27,184.49 218.18,184.21 221.02,181.50 C223.80,178.86 224.12,178.02 223.66,174.50 C223.17,170.74 223.34,170.40 226.60,168.75 C229.69,167.20 230.13,167.18 230.66,168.56 C232.65,173.74 227.66,185.47 222.46,187.83 C219.83,189.03 219.24,191.84 221.19,193.79 C221.87,194.47 222.40,197.89 222.42,201.74 C222.45,207.39 222.02,209.17 219.82,212.59 C216.37,217.93 212.67,219.41 204.45,218.75 C198.65,218.28 197.80,218.45 196.48,220.34 C195.66,221.50 195.00,223.31 195.00,224.38 C195.00,227.15 201.72,238.78 204.04,240.02 C205.12,240.60 206.00,241.54 206.00,242.11 C206.00,242.67 207.28,245.02 208.84,247.32 C213.59,254.30 214.00,256.83 214.00,279.02 C214.00,294.95 214.35,300.74 215.51,304.03 C216.34,306.39 216.79,308.54 216.51,308.82 C215.02,310.31 200.74,299.98 195.96,293.95 L 192.84 290.01 L 197.55 282.93 C201.18,277.46 201.98,275.58 201.06,274.68 C200.14,273.77 199.38,274.19 197.75,276.50 C193.16,283.02 177.63,297.01 164.09,306.83 C160.21,309.64 158.89,310.08 155.55,309.65 C153.33,309.36 141.47,304.06 128.40,297.52 C109.97,288.30 104.66,286.05 102.59,286.57 C101.16,286.93 99.71,287.66 99.39,288.18 C99.06,288.71 102.21,294.29 106.40,300.57 C110.58,306.85 114.00,312.64 114.00,313.43 C114.00,316.78 111.96,315.68 109.05,310.76 ZM 213.04 211.11 C216.30,208.38 216.50,207.87 216.50,202.02 C216.50,196.47 216.21,195.57 213.69,193.41 C209.63,189.92 206.45,190.31 201.88,194.88 C198.40,198.36 198.00,199.29 198.00,203.79 C198.00,208.18 198.39,209.15 201.08,211.41 C205.09,214.79 208.74,214.70 213.04,211.11 ZM 309.96 285.62 C301.70,277.81 269.42,265.87 248.25,262.79 C240.00,261.59 237.12,259.99 243.25,260.01 C245.04,260.01 252.35,260.68 259.50,261.49 C271.72,262.86 277.48,264.03 289.50,267.55 C295.80,269.40 312.41,277.69 314.55,280.05 C316.03,281.69 316.02,282.04 314.46,284.42 C312.52,287.38 311.98,287.52 309.96,285.62 ZM 225.00 259.16 C225.00,257.96 229.97,255.86 231.12,256.58 C232.70,257.55 230.02,260.00 227.38,260.00 C226.07,260.00 225.00,259.62 225.00,259.16 ZM 220.47 250.78 C219.67,248.71 222.32,238.73 223.80,238.23 C224.46,238.01 225.00,238.55 225.00,239.42 C225.00,243.29 226.79,240.95 234.65,226.85 C244.52,209.15 259.44,189.79 277.76,170.93 C301.81,146.15 321.37,130.26 348.22,113.68 C365.29,103.13 398.41,88.04 416.00,82.80 C435.65,76.94 453.82,72.97 467.90,71.46 L 474.30 70.77 L 473.71 74.13 C473.38,75.99 472.38,81.78 471.48,87.00 C470.58,92.22 469.04,98.30 468.05,100.50 C467.07,102.70 464.84,109.00 463.10,114.50 C455.77,137.74 445.60,159.56 433.84,177.32 C430.63,182.17 428.00,186.46 428.00,186.86 C428.00,187.25 426.75,189.08 425.21,190.91 L 422.43 194.25 L 414.96 189.22 C406.05,183.21 396.36,178.99 390.66,178.64 C388.37,178.50 385.60,177.90 384.50,177.31 C383.40,176.72 378.23,175.53 373.00,174.65 C362.07,172.82 353.39,173.20 338.50,176.16 C325.33,178.77 320.61,180.19 310.20,184.65 C286.24,194.90 270.79,206.19 246.15,231.45 C238.81,238.97 232.64,244.97 232.44,244.77 C232.25,244.58 235.35,240.33 239.33,235.34 C270.11,196.80 299.23,177.08 337.50,168.87 C341.10,168.10 350.70,167.57 361.50,167.56 C377.04,167.54 380.73,167.85 388.50,169.83 C398.67,172.42 405.88,175.04 414.22,179.17 C417.37,180.73 420.12,182.00 420.35,182.00 C420.85,182.00 429.45,168.74 434.77,159.76 C440.45,150.17 449.09,130.50 453.76,116.50 C459.11,100.49 462.71,84.31 461.24,82.84 C459.21,80.81 437.49,85.78 414.08,93.62 C392.72,100.78 380.52,106.20 361.08,117.18 C332.30,133.44 309.40,150.75 284.63,174.98 C259.24,199.81 244.47,217.15 229.89,239.24 C220.38,253.66 221.19,252.66 220.47,250.78 ZM 336.25 248.28 C331.45,247.68 332.28,246.48 338.75,244.64 C344.44,243.02 344.51,243.03 346.23,245.25 C347.18,246.49 347.97,247.84 347.98,248.25 C348.00,249.01 342.24,249.02 336.25,248.28 ZM 59.00 245.04 C59.00,241.87 56.78,240.00 53.01,240.00 C51.84,240.00 51.16,239.55 51.50,239.00 C51.84,238.45 53.13,238.00 54.36,238.00 C57.48,238.00 59.00,236.16 59.00,232.36 C59.00,228.65 60.56,227.05 61.45,229.85 C61.78,230.89 62.90,232.50 63.93,233.44 C65.50,234.85 66.46,234.97 69.57,234.11 L 73.32 233.07 L 69.95 236.55 C66.61,240.00 66.60,240.05 68.29,242.92 C70.59,246.81 70.44,247.49 67.81,245.04 C65.02,242.44 64.56,242.47 62.18,245.50 C59.63,248.74 59.00,248.65 59.00,245.04 ZM 244.00 247.12 C244.00,246.63 244.93,245.99 246.06,245.70 C247.75,245.25 247.90,245.41 246.93,246.58 C245.61,248.17 244.00,248.47 244.00,247.12 ZM 251.00 244.19 C251.00,243.74 255.61,241.16 261.25,238.45 C290.91,224.21 313.35,209.10 333.58,189.77 C341.60,182.10 343.20,181.00 346.32,181.00 C348.28,181.00 350.16,181.45 350.50,182.00 C352.04,184.49 328.51,205.39 311.17,216.94 C299.49,224.72 277.74,235.97 269.50,238.50 C266.20,239.51 261.08,241.39 258.13,242.67 C252.35,245.17 251.00,245.46 251.00,244.19 ZM 361.48 238.97 C360.62,237.30 360.17,235.53 360.48,235.03 C360.79,234.53 363.62,232.66 366.77,230.87 C373.62,226.98 381.75,221.47 388.26,216.29 C390.88,214.20 395.42,210.59 398.36,208.25 C403.65,204.03 403.71,204.01 406.84,205.57 C408.58,206.44 410.00,207.52 410.00,207.97 C410.00,209.91 394.11,223.41 383.73,230.30 C373.70,236.95 365.01,242.00 363.57,242.00 C363.28,242.00 362.35,240.64 361.48,238.97 ZM 224.50 236.00 C224.16,235.45 224.36,235.00 224.94,235.00 C225.52,235.00 226.00,235.45 226.00,236.00 C226.00,236.55 225.80,237.00 225.56,237.00 C225.32,237.00 224.84,236.55 224.50,236.00 ZM 225.60 232.16 C224.80,230.87 225.54,224.26 226.96,220.00 C227.42,218.62 228.78,214.12 229.99,210.00 C233.20,199.05 237.97,185.09 240.07,180.50 C241.08,178.30 243.69,172.33 245.88,167.24 C249.25,159.41 258.43,141.55 264.78,130.50 C279.70,104.52 309.06,70.53 334.00,50.36 C351.09,36.54 390.10,13.29 394.72,14.18 C395.88,14.41 396.73,15.99 397.32,19.01 C398.38,24.47 398.60,70.86 397.59,76.62 C396.95,80.26 396.39,80.94 392.88,82.32 C389.32,83.71 388.83,83.72 388.31,82.36 C387.99,81.52 388.30,73.34 389.00,64.17 C390.41,45.66 390.12,30.72 388.32,28.92 C386.80,27.40 381.24,30.04 366.50,39.29 C340.76,55.43 324.19,69.63 302.07,94.50 C271.82,128.50 242.93,181.03 227.30,230.45 C226.68,232.42 226.11,232.99 225.60,232.16 ZM 358.00 160.60 C358.00,160.38 359.73,157.35 361.85,153.85 C366.87,145.59 373.23,132.19 376.02,124.00 C377.25,120.43 378.91,116.74 379.73,115.81 C381.21,114.11 386.71,112.37 387.64,113.31 C388.75,114.42 379.73,137.43 372.79,151.23 L 367.87 161.00 L 362.93 161.00 C360.22,161.00 358.00,160.82 358.00,160.60 ZM 167.67 158.33 C167.30,157.97 167.00,156.60 167.00,155.30 C167.00,152.03 169.71,151.26 172.25,153.81 C173.99,155.55 174.12,156.15 173.05,157.45 C171.72,159.04 168.85,159.52 167.67,158.33 ZM 231.15 142.14 C229.39,140.99 230.02,138.01 232.31,136.61 C233.76,135.72 234.41,135.89 235.59,137.48 C236.40,138.57 236.93,140.15 236.77,140.98 C236.43,142.74 233.12,143.42 231.15,142.14 Z" fill="rgba(0,0,0,1)"/>
</g>
</svg>